<mxfile host="app.diagrams.net" modified="2024-03-23T12:08:01.647Z" agent="Mozilla/5.0 (X11; Ubuntu; Linux x86_64; rv:109.0) Gecko/20100101 Firefox/118.0" etag="0B0Iaf8vwUHBgiT7tvoV" version="24.0.8" type="device">
  <diagram name="Page-1" id="a8yEIJK1qO49BB53HpVh">
    <mxGraphModel dx="1434" dy="787" grid="0" gridSize="10" guides="1" tooltips="1" connect="1" arrows="1" fold="1" page="1" pageScale="1" pageWidth="850" pageHeight="1100" background="#000000" math="0" shadow="0">
      <root>
        <mxCell id="0" />
        <mxCell id="1" parent="0" />
        <mxCell id="h3rb0PZDTNr7nrPWwVHe-6" value="" style="ellipse;whiteSpace=wrap;html=1;aspect=fixed;hachureGap=4;fontFamily=Architects Daughter;fontSource=https%3A%2F%2Ffonts.googleapis.com%2Fcss%3Ffamily%3DArchitects%2BDaughter;fillColor=#182E3E;fillStyle=auto;strokeColor=#FFFFFF;labelBackgroundColor=none;fontColor=#FFFFFF;" vertex="1" parent="1">
          <mxGeometry x="210" y="237" width="447" height="447" as="geometry" />
        </mxCell>
        <mxCell id="iaXnAL48hpWi97Z9rls9-1" value="n" style="text;html=1;align=center;verticalAlign=middle;resizable=0;points=[];autosize=1;strokeColor=none;fillColor=none;fontFamily=Architects Daughter;fontSource=https%3A%2F%2Ffonts.googleapis.com%2Fcss%3Ffamily%3DArchitects%2BDaughter;labelBackgroundColor=none;fontColor=#FFFFFF;" parent="1" vertex="1">
          <mxGeometry x="265" y="63" width="24" height="26" as="geometry" />
        </mxCell>
        <mxCell id="iaXnAL48hpWi97Z9rls9-4" value="&lt;font style=&quot;font-size: 22px;&quot;&gt;&lt;b&gt;Network-Meta-Analysis&lt;/b&gt;&lt;/font&gt;" style="text;html=1;align=center;verticalAlign=middle;whiteSpace=wrap;rounded=0;fontFamily=Architects Daughter;fontSource=https%3A%2F%2Ffonts.googleapis.com%2Fcss%3Ffamily%3DArchitects%2BDaughter;fontColor=#FFFFFF;labelBackgroundColor=none;" parent="1" vertex="1">
          <mxGeometry x="248" y="61" width="354" height="30" as="geometry" />
        </mxCell>
        <mxCell id="h3rb0PZDTNr7nrPWwVHe-7" value="" style="ellipse;whiteSpace=wrap;html=1;aspect=fixed;hachureGap=4;fontFamily=Architects Daughter;fontSource=https%3A%2F%2Ffonts.googleapis.com%2Fcss%3Ffamily%3DArchitects%2BDaughter;fillColor=#9141ac;fillStyle=auto;strokeColor=#FFFFFF;labelBackgroundColor=none;fontColor=#FFFFFF;" vertex="1" parent="1">
          <mxGeometry x="389" y="303" width="67" height="67" as="geometry" />
        </mxCell>
        <mxCell id="h3rb0PZDTNr7nrPWwVHe-8" value="" style="ellipse;whiteSpace=wrap;html=1;aspect=fixed;hachureGap=4;fontFamily=Architects Daughter;fontSource=https%3A%2F%2Ffonts.googleapis.com%2Fcss%3Ffamily%3DArchitects%2BDaughter;fillColor=#9141ac;fillStyle=auto;strokeColor=#FFFFFF;labelBackgroundColor=none;fontColor=#FFFFFF;" vertex="1" parent="1">
          <mxGeometry x="310" y="449" width="67" height="67" as="geometry" />
        </mxCell>
        <mxCell id="h3rb0PZDTNr7nrPWwVHe-9" value="" style="ellipse;whiteSpace=wrap;html=1;aspect=fixed;hachureGap=4;fontFamily=Architects Daughter;fontSource=https%3A%2F%2Ffonts.googleapis.com%2Fcss%3Ffamily%3DArchitects%2BDaughter;fillColor=#9141ac;fillStyle=auto;strokeColor=#FFFFFF;labelBackgroundColor=none;fontColor=#FFFFFF;" vertex="1" parent="1">
          <mxGeometry x="487" y="451" width="67" height="67" as="geometry" />
        </mxCell>
        <mxCell id="h3rb0PZDTNr7nrPWwVHe-10" value="" style="endArrow=none;html=1;rounded=0;hachureGap=4;fontFamily=Architects Daughter;fontSource=https%3A%2F%2Ffonts.googleapis.com%2Fcss%3Ffamily%3DArchitects%2BDaughter;entryX=0.254;entryY=0.94;entryDx=0;entryDy=0;entryPerimeter=0;labelBackgroundColor=none;strokeColor=#23445D;fontColor=default;" edge="1" parent="1" source="h3rb0PZDTNr7nrPWwVHe-8" target="h3rb0PZDTNr7nrPWwVHe-7">
          <mxGeometry width="50" height="50" relative="1" as="geometry">
            <mxPoint x="410" y="431" as="sourcePoint" />
            <mxPoint x="460" y="381" as="targetPoint" />
          </mxGeometry>
        </mxCell>
        <mxCell id="h3rb0PZDTNr7nrPWwVHe-11" value="" style="endArrow=none;html=1;rounded=0;hachureGap=4;fontFamily=Architects Daughter;fontSource=https%3A%2F%2Ffonts.googleapis.com%2Fcss%3Ffamily%3DArchitects%2BDaughter;entryX=0.5;entryY=1;entryDx=0;entryDy=0;labelBackgroundColor=none;strokeColor=#23445D;fontColor=default;" edge="1" parent="1" source="h3rb0PZDTNr7nrPWwVHe-8" target="h3rb0PZDTNr7nrPWwVHe-7">
          <mxGeometry width="50" height="50" relative="1" as="geometry">
            <mxPoint x="410" y="431" as="sourcePoint" />
            <mxPoint x="460" y="381" as="targetPoint" />
          </mxGeometry>
        </mxCell>
        <mxCell id="h3rb0PZDTNr7nrPWwVHe-14" value="" style="endArrow=none;html=1;rounded=0;hachureGap=4;fontFamily=Architects Daughter;fontSource=https%3A%2F%2Ffonts.googleapis.com%2Fcss%3Ffamily%3DArchitects%2BDaughter;exitX=0.642;exitY=0.045;exitDx=0;exitDy=0;exitPerimeter=0;labelBackgroundColor=none;strokeColor=#23445D;fontColor=default;" edge="1" parent="1" source="h3rb0PZDTNr7nrPWwVHe-8">
          <mxGeometry relative="1" as="geometry">
            <mxPoint x="355" y="406" as="sourcePoint" />
            <mxPoint x="409" y="367" as="targetPoint" />
          </mxGeometry>
        </mxCell>
        <mxCell id="h3rb0PZDTNr7nrPWwVHe-15" value="" style="endArrow=block;startArrow=block;endFill=1;startFill=1;html=1;rounded=1;hachureGap=4;fontFamily=Architects Daughter;fontSource=https%3A%2F%2Ffonts.googleapis.com%2Fcss%3Ffamily%3DArchitects%2BDaughter;curved=0;strokeColor=#2ec27e;endSize=11;startSize=12;strokeWidth=4;exitX=0.657;exitY=0.045;exitDx=0;exitDy=0;exitPerimeter=0;labelBackgroundColor=none;fontColor=default;" edge="1" parent="1" source="h3rb0PZDTNr7nrPWwVHe-8" target="h3rb0PZDTNr7nrPWwVHe-7">
          <mxGeometry width="160" relative="1" as="geometry">
            <mxPoint x="372" y="474" as="sourcePoint" />
            <mxPoint x="321" y="243" as="targetPoint" />
          </mxGeometry>
        </mxCell>
        <mxCell id="h3rb0PZDTNr7nrPWwVHe-16" value="" style="endArrow=block;startArrow=block;endFill=1;startFill=1;html=1;rounded=1;hachureGap=4;fontFamily=Architects Daughter;fontSource=https%3A%2F%2Ffonts.googleapis.com%2Fcss%3Ffamily%3DArchitects%2BDaughter;curved=0;strokeColor=#2ec27e;endSize=11;startSize=12;strokeWidth=4;exitX=0.657;exitY=0.045;exitDx=0;exitDy=0;exitPerimeter=0;entryX=0.955;entryY=0.821;entryDx=0;entryDy=0;entryPerimeter=0;labelBackgroundColor=none;fontColor=default;" edge="1" parent="1" target="h3rb0PZDTNr7nrPWwVHe-7">
          <mxGeometry width="160" relative="1" as="geometry">
            <mxPoint x="510" y="455" as="sourcePoint" />
            <mxPoint x="561" y="368" as="targetPoint" />
          </mxGeometry>
        </mxCell>
        <mxCell id="h3rb0PZDTNr7nrPWwVHe-19" value="" style="endArrow=block;startArrow=block;endFill=1;startFill=1;html=1;rounded=1;hachureGap=4;fontFamily=Architects Daughter;fontSource=https%3A%2F%2Ffonts.googleapis.com%2Fcss%3Ffamily%3DArchitects%2BDaughter;curved=0;strokeColor=#2ec27e;endSize=11;startSize=12;strokeWidth=4;exitX=0.657;exitY=0.045;exitDx=0;exitDy=0;exitPerimeter=0;entryX=0.955;entryY=0.821;entryDx=0;entryDy=0;entryPerimeter=0;labelBackgroundColor=none;fontColor=default;" edge="1" parent="1">
          <mxGeometry width="160" relative="1" as="geometry">
            <mxPoint x="491" y="467" as="sourcePoint" />
            <mxPoint x="434" y="370" as="targetPoint" />
          </mxGeometry>
        </mxCell>
        <mxCell id="h3rb0PZDTNr7nrPWwVHe-28" value="&lt;b&gt;&lt;font style=&quot;font-size: 16px;&quot;&gt;Vertices/ Node&lt;/font&gt;&lt;/b&gt;" style="swimlane;childLayout=stackLayout;horizontal=1;startSize=50;horizontalStack=0;rounded=1;fontSize=14;fontStyle=0;strokeWidth=2;resizeParent=0;resizeLast=1;shadow=0;dashed=0;align=center;arcSize=4;whiteSpace=wrap;html=1;hachureGap=4;fontFamily=Architects Daughter;fontSource=https%3A%2F%2Ffonts.googleapis.com%2Fcss%3Ffamily%3DArchitects%2BDaughter;labelBackgroundColor=none;fillColor=#182E3E;strokeColor=#FFFFFF;fontColor=#FFFFFF;" vertex="1" parent="1">
          <mxGeometry x="627" y="123" width="179" height="150" as="geometry" />
        </mxCell>
        <mxCell id="h3rb0PZDTNr7nrPWwVHe-29" value="&lt;div style=&quot;font-size: 16px;&quot;&gt;&lt;font style=&quot;font-size: 16px;&quot;&gt;+ Treatment&lt;/font&gt;&lt;/div&gt;&lt;div style=&quot;font-size: 16px;&quot;&gt;&lt;font style=&quot;font-size: 16px;&quot;&gt;+ connected through&amp;nbsp;&lt;/font&gt;&lt;/div&gt;&lt;div style=&quot;font-size: 16px;&quot;&gt;&lt;font style=&quot;font-size: 16px;&quot;&gt;a common node&lt;font style=&quot;font-size: 16px;&quot;&gt;&lt;br&gt;&lt;/font&gt;&lt;/font&gt;&lt;/div&gt;" style="align=left;strokeColor=none;fillColor=none;spacingLeft=4;fontSize=12;verticalAlign=top;resizable=0;rotatable=0;part=1;html=1;hachureGap=4;fontFamily=Architects Daughter;fontSource=https%3A%2F%2Ffonts.googleapis.com%2Fcss%3Ffamily%3DArchitects%2BDaughter;labelBackgroundColor=none;fontColor=#FFFFFF;" vertex="1" parent="h3rb0PZDTNr7nrPWwVHe-28">
          <mxGeometry y="50" width="179" height="100" as="geometry" />
        </mxCell>
        <mxCell id="h3rb0PZDTNr7nrPWwVHe-30" value="" style="endArrow=classic;html=1;rounded=0;strokeColor=#77767b;exitX=0;exitY=1;exitDx=0;exitDy=0;entryX=0.955;entryY=0.313;entryDx=0;entryDy=0;entryPerimeter=0;strokeWidth=7;" edge="1" parent="1" source="h3rb0PZDTNr7nrPWwVHe-29" target="h3rb0PZDTNr7nrPWwVHe-7">
          <mxGeometry width="50" height="50" relative="1" as="geometry">
            <mxPoint x="419" y="402" as="sourcePoint" />
            <mxPoint x="469" y="352" as="targetPoint" />
          </mxGeometry>
        </mxCell>
        <mxCell id="h3rb0PZDTNr7nrPWwVHe-31" style="edgeStyle=orthogonalEdgeStyle;rounded=0;orthogonalLoop=1;jettySize=auto;html=1;exitX=1;exitY=1;exitDx=0;exitDy=0;strokeColor=#23445D;" edge="1" parent="1" source="h3rb0PZDTNr7nrPWwVHe-29">
          <mxGeometry relative="1" as="geometry">
            <mxPoint x="787" y="253" as="targetPoint" />
          </mxGeometry>
        </mxCell>
        <mxCell id="h3rb0PZDTNr7nrPWwVHe-32" value="&lt;b&gt;&lt;font style=&quot;font-size: 16px;&quot;&gt;Edges&lt;/font&gt;&lt;/b&gt;" style="swimlane;childLayout=stackLayout;horizontal=1;startSize=50;horizontalStack=0;rounded=1;fontSize=14;fontStyle=0;strokeWidth=2;resizeParent=0;resizeLast=1;shadow=0;dashed=0;align=center;arcSize=4;whiteSpace=wrap;html=1;hachureGap=4;fontFamily=Architects Daughter;fontSource=https%3A%2F%2Ffonts.googleapis.com%2Fcss%3Ffamily%3DArchitects%2BDaughter;labelBackgroundColor=none;fillColor=#182E3E;strokeColor=#FFFFFF;fontColor=#FFFFFF;" vertex="1" parent="1">
          <mxGeometry x="618" y="647" width="217" height="208" as="geometry" />
        </mxCell>
        <mxCell id="h3rb0PZDTNr7nrPWwVHe-33" value="&lt;div style=&quot;font-size: 14px;&quot;&gt;&lt;font style=&quot;font-size: 14px;&quot;&gt;+ direct randomized&amp;nbsp;&lt;/font&gt;&lt;/div&gt;&lt;div style=&quot;font-size: 14px;&quot;&gt;&lt;font style=&quot;font-size: 14px;&quot;&gt;comparisons&lt;/font&gt;&lt;/div&gt;&lt;div style=&quot;font-size: 14px;&quot;&gt;&lt;font style=&quot;font-size: 14px;&quot;&gt;&lt;br&gt;&lt;/font&gt;&lt;/div&gt;&lt;div style=&quot;font-size: 14px;&quot;&gt;&lt;font style=&quot;font-size: 14px;&quot;&gt;+ Randomized Control Studies&lt;/font&gt;&lt;/div&gt;&lt;div style=&quot;font-size: 14px;&quot;&gt;&lt;font style=&quot;font-size: 14px;&quot;&gt;for the treatment&lt;/font&gt;&lt;/div&gt;&lt;div style=&quot;font-size: 14px;&quot;&gt;&lt;font style=&quot;font-size: 14px;&quot;&gt;&lt;br&gt;&lt;/font&gt;&lt;/div&gt;&lt;div style=&quot;font-size: 14px;&quot;&gt;&lt;font style=&quot;font-size: 14px;&quot;&gt;+ multiple arrows / edges can&amp;nbsp;&lt;/font&gt;&lt;/div&gt;&lt;div style=&quot;font-size: 14px;&quot;&gt;&lt;font style=&quot;font-size: 14px;&quot;&gt;support treatments&lt;/font&gt;&lt;br&gt;&lt;/div&gt;" style="align=left;strokeColor=none;fillColor=none;spacingLeft=4;fontSize=12;verticalAlign=top;resizable=0;rotatable=0;part=1;html=1;hachureGap=4;fontFamily=Architects Daughter;fontSource=https%3A%2F%2Ffonts.googleapis.com%2Fcss%3Ffamily%3DArchitects%2BDaughter;labelBackgroundColor=none;fontColor=#FFFFFF;" vertex="1" parent="h3rb0PZDTNr7nrPWwVHe-32">
          <mxGeometry y="50" width="217" height="158" as="geometry" />
        </mxCell>
        <mxCell id="h3rb0PZDTNr7nrPWwVHe-35" value="" style="endArrow=classic;html=1;rounded=0;strokeColor=#77767b;entryX=0.955;entryY=0.313;entryDx=0;entryDy=0;entryPerimeter=0;strokeWidth=7;exitX=0.567;exitY=-0.005;exitDx=0;exitDy=0;exitPerimeter=0;" edge="1" parent="1" source="h3rb0PZDTNr7nrPWwVHe-32">
          <mxGeometry width="50" height="50" relative="1" as="geometry">
            <mxPoint x="811" y="386" as="sourcePoint" />
            <mxPoint x="487" y="412" as="targetPoint" />
            <Array as="points">
              <mxPoint x="742" y="376" />
            </Array>
          </mxGeometry>
        </mxCell>
        <mxCell id="h3rb0PZDTNr7nrPWwVHe-36" value="&lt;b&gt;Control&lt;/b&gt;" style="text;html=1;align=center;verticalAlign=middle;whiteSpace=wrap;rounded=0;fontColor=#FFFFFF;" vertex="1" parent="1">
          <mxGeometry x="395" y="264" width="60" height="30" as="geometry" />
        </mxCell>
        <mxCell id="h3rb0PZDTNr7nrPWwVHe-51" value="" style="edgeStyle=orthogonalEdgeStyle;rounded=0;orthogonalLoop=1;jettySize=auto;html=1;strokeColor=#23445D;" edge="1" parent="1" source="h3rb0PZDTNr7nrPWwVHe-37" target="h3rb0PZDTNr7nrPWwVHe-8">
          <mxGeometry relative="1" as="geometry" />
        </mxCell>
        <mxCell id="h3rb0PZDTNr7nrPWwVHe-37" value="&lt;div&gt;&lt;b&gt;Treatment 1&lt;/b&gt;&lt;/div&gt;&lt;div&gt;=&lt;/div&gt;&lt;div&gt;SARS-Cov&lt;br&gt;&lt;/div&gt;&lt;div&gt;/&lt;/div&gt;&lt;div&gt;Medicine 1&lt;br&gt;&lt;/div&gt;" style="text;html=1;align=center;verticalAlign=middle;whiteSpace=wrap;rounded=0;fontColor=#FFFFFF;" vertex="1" parent="1">
          <mxGeometry x="317" y="579" width="60" height="30" as="geometry" />
        </mxCell>
        <mxCell id="h3rb0PZDTNr7nrPWwVHe-38" value="&lt;div&gt;&lt;b&gt;Treatment 2&lt;/b&gt;&lt;/div&gt;&lt;div&gt;=&lt;/div&gt;&lt;div&gt;Influenza&lt;br&gt;&lt;/div&gt;&lt;div&gt;/&lt;/div&gt;&lt;div&gt;Medicine 2&lt;br&gt;&lt;/div&gt;" style="text;html=1;align=center;verticalAlign=middle;whiteSpace=wrap;rounded=0;fontColor=#FFFFFF;" vertex="1" parent="1">
          <mxGeometry x="490.5" y="571" width="60" height="30" as="geometry" />
        </mxCell>
        <mxCell id="h3rb0PZDTNr7nrPWwVHe-45" value="&lt;h1 align=&quot;justify&quot; style=&quot;margin-top: 0px;&quot;&gt;Medical Condition&lt;/h1&gt;&lt;p align=&quot;justify&quot;&gt;respiritory infections/ medicines being tested&lt;/p&gt;" style="text;html=1;whiteSpace=wrap;overflow=hidden;rounded=0;fontColor=#FFFFFF;" vertex="1" parent="1">
          <mxGeometry x="39" y="192" width="180" height="120" as="geometry" />
        </mxCell>
        <mxCell id="h3rb0PZDTNr7nrPWwVHe-50" value="" style="endArrow=classic;html=1;rounded=0;strokeColor=#77767b;exitX=0.5;exitY=1;exitDx=0;exitDy=0;entryX=0;entryY=0.5;entryDx=0;entryDy=0;strokeWidth=7;" edge="1" parent="1" source="h3rb0PZDTNr7nrPWwVHe-45" target="h3rb0PZDTNr7nrPWwVHe-6">
          <mxGeometry width="50" height="50" relative="1" as="geometry">
            <mxPoint x="138.05999999999995" y="315" as="sourcePoint" />
            <mxPoint x="49" y="442" as="targetPoint" />
            <Array as="points">
              <mxPoint x="129" y="461" />
            </Array>
          </mxGeometry>
        </mxCell>
        <mxCell id="h3rb0PZDTNr7nrPWwVHe-53" value="" style="endArrow=none;dashed=1;html=1;dashPattern=1 3;strokeWidth=5;rounded=1;strokeColor=#82b366;entryX=0;entryY=0.5;entryDx=0;entryDy=0;exitX=1;exitY=0.5;exitDx=0;exitDy=0;fillColor=#d5e8d4;curved=0;" edge="1" parent="1" source="h3rb0PZDTNr7nrPWwVHe-8" target="h3rb0PZDTNr7nrPWwVHe-9">
          <mxGeometry width="50" height="50" relative="1" as="geometry">
            <mxPoint x="395" y="516" as="sourcePoint" />
            <mxPoint x="445" y="466" as="targetPoint" />
          </mxGeometry>
        </mxCell>
        <mxCell id="h3rb0PZDTNr7nrPWwVHe-54" value="&lt;h1 align=&quot;justify&quot; style=&quot;margin-top: 0px;&quot;&gt;indirect randomized comparisons&lt;br&gt;&lt;/h1&gt;&lt;p align=&quot;justify&quot;&gt;&lt;b&gt;Goal of network-meta-analysis&lt;/b&gt;: Treatment comparisons that have not been stud- ied in the original studies can indirectly be made within the network meta-analysis.&lt;/p&gt;&lt;p align=&quot;justify&quot;&gt;+ indirect comparisons&lt;/p&gt;&lt;p align=&quot;justify&quot;&gt;+ see dotted line&lt;br&gt;&lt;/p&gt;" style="text;html=1;whiteSpace=wrap;overflow=hidden;rounded=0;fontColor=#FFFFFF;align=right;" vertex="1" parent="1">
          <mxGeometry x="33" y="611" width="180" height="261" as="geometry" />
        </mxCell>
      </root>
    </mxGraphModel>
  </diagram>
</mxfile>
